<?xml version="1.0" encoding="UTF-8"?> <svg xmlns="http://www.w3.org/2000/svg" width="81" height="102" viewBox="0 0 81 102" fill="none"><path d="M30.2708 69.1463C29.1896 67.9651 27.7513 67.3128 26.2213 67.3128H22.2041C23.734 67.3128 25.1723 67.9651 26.2535 69.1463C27.2682 70.2906 27.8577 71.7488 27.9229 73.2759C27.988 74.803 27.5248 76.3059 26.6112 77.5323C26.8388 77.655 27.0692 77.7705 27.3015 77.8848H31.3188C31.0865 77.7705 30.8561 77.6551 30.6284 77.5323C31.542 76.3059 32.0052 74.803 31.9401 73.2759C31.8749 71.7488 31.2855 70.2907 30.2708 69.1463Z" fill="url(#paint0_linear_5514_63060)"></path><path d="M42.3872 84.248H38.3701C37.07 84.248 36.0131 85.4031 36.0131 86.8241C36.0131 88.245 37.07 89.4009 38.3675 89.4009H42.3846C41.0871 89.4009 40.0304 88.2458 40.0304 86.8241C40.0304 85.4024 41.0865 84.248 42.3872 84.248Z" fill="url(#paint1_linear_5514_63060)"></path><path d="M40.1321 60.3818C41.5973 60.3818 43.063 59.7719 44.1783 58.5517L60.2943 40.9232H56.2774L40.1611 58.5517C39.2928 59.5213 38.1086 60.1524 36.8186 60.333L37.4429 59.651H33.4258L28.7223 64.7898C28.2089 65.3512 27.5835 65.799 26.8864 66.1045C26.1892 66.4101 25.4358 66.5665 24.6745 66.5639H28.6916C29.4529 66.5665 30.2063 66.4101 30.9034 66.1045C31.6006 65.799 32.2259 65.3512 32.7393 64.7898L36.7739 60.3819L40.1321 60.3818Z" fill="url(#paint2_linear_5514_63060)"></path><path d="M45.6451 72.1594C44.5751 71.8725 43.4721 71.7267 42.3642 71.7255H38.3471C39.455 71.7267 40.5579 71.8725 41.6279 72.1594C44.6712 72.9717 47.3111 74.8487 49.2018 77.5183H53.219C51.3283 74.8487 48.6883 72.9717 45.6451 72.1594Z" fill="url(#paint3_linear_5514_63060)"></path><path d="M58.5799 14.4217H54.5628L50.6268 15.8575L29.9174 38.4965L36.112 45.2737H40.1291L33.9345 38.4965L54.6439 15.8575L58.5799 14.4217Z" fill="url(#paint4_linear_5514_63060)"></path><path d="M74.7204 89.4009H56.9262C68.7388 83.2602 76.3136 70.3598 76.4037 55.9055C76.4145 47.1121 73.595 38.7 68.4319 32.025L69.8878 30.4331C70.524 29.731 70.9958 28.8961 71.2687 27.9893L74.1281 18.6155C74.8211 16.3555 74.2948 13.9014 72.7484 12.2088L64.1735 2.83622C63.0753 1.63755 61.6245 1 60.1339 1H56.1168C57.6074 1 59.0581 1.63755 60.1563 2.83622L68.7311 12.2088C70.2775 13.9014 70.8039 16.3559 70.1109 18.6155L67.2514 27.9893C66.9785 28.8961 66.5068 29.731 65.8706 30.4331L64.4147 32.025C69.5778 38.6998 72.3974 47.1118 72.3864 55.9055C72.2964 70.36 64.7213 83.2602 52.9089 89.4009H70.7029C73.8599 89.4009 76.4275 92.2074 76.4275 95.6582C76.4275 99.109 73.8599 101.919 70.7029 101.919H74.7204C77.8774 101.919 80.445 99.1101 80.445 95.6582C80.445 92.2063 77.8771 89.4009 74.7204 89.4009Z" fill="url(#paint5_linear_5514_63060)"></path><path d="M70.7027 89.4009C73.8598 89.4009 76.4274 92.2074 76.4274 95.6582C76.4274 99.109 73.8598 101.919 70.7027 101.919H6.03717C2.88014 101.919 0.311523 99.1102 0.311523 95.6582C0.311523 92.2062 2.88014 89.4009 6.03717 89.4009H22.9686C18.3293 87.1624 14.1328 83.9034 10.6742 79.8309H6.03794C2.88092 79.8309 0.312295 77.0221 0.312295 73.5713C0.312295 70.1205 2.88092 67.3129 6.03794 67.3129H22.2045C23.7344 67.3129 25.1726 67.9652 26.2537 69.1464C27.2685 70.2907 27.8579 71.7489 27.9231 73.276C27.9882 74.8031 27.525 76.306 26.6114 77.5324C26.8391 77.6551 27.0694 77.7705 27.3018 77.8849C28.3431 76.3122 29.6867 74.9616 31.2548 73.9114C33.4302 72.4654 35.8683 71.7255 38.3474 71.7255C39.4552 71.7267 40.5582 71.8726 41.6282 72.1595C44.6714 72.9718 47.3114 74.8487 49.2021 77.5184C56.3303 73.1924 60.8909 64.8664 60.9349 55.8931C60.9411 50.4505 59.2989 45.2046 56.2775 40.9234L40.1609 58.5518C39.046 59.772 37.58 60.3818 36.1147 60.3818C35.1693 60.3809 34.2411 60.1286 33.4255 59.6509L28.722 64.7899C28.207 65.3491 27.5813 65.7955 26.8846 66.1009C26.1879 66.4063 25.4354 66.5639 24.6745 66.5639C23.9137 66.5639 23.1611 66.4063 22.4644 66.1009C21.7677 65.7955 21.1421 65.3491 20.627 64.7899L12.0491 55.419C10.9682 54.1978 10.3716 52.6243 10.3716 50.9946C10.3716 49.3648 10.9682 47.7913 12.0491 46.5702L16.7609 41.4217C15.6191 39.0587 15.9566 36.0565 17.7721 34.0698L43.4857 5.96375C44.098 5.28552 44.8659 4.7657 45.7236 4.44876L54.2948 1.32324C54.8785 1.11045 55.4951 1.00111 56.1166 1.00024C57.6072 1.00024 59.0578 1.6378 60.156 2.83646L68.7308 12.2092C70.2773 13.9018 70.8037 16.3558 70.1107 18.6158L67.2512 27.9895C66.9783 28.8964 66.5066 29.7312 65.8704 30.4334L64.4144 32.0253C69.5776 38.7 72.3972 47.1121 72.3862 55.9058C72.2962 70.3602 64.7211 83.2605 52.9087 89.4013L70.7027 89.4009ZM56.8189 22.6283L58.1289 18.3236L54.562 14.4213L50.6259 15.8571L29.9166 38.4961L36.1112 45.2733L56.8189 22.6283ZM38.3663 89.4006C39.6671 89.3979 40.7238 88.2432 40.7263 86.8221C40.7263 85.4027 39.6689 84.2476 38.3688 84.2476C37.0687 84.2476 36.012 85.4029 36.012 86.8239C36.012 88.245 37.0688 89.4006 38.3663 89.4006Z" fill="#CB99FF"></path><g style="mix-blend-mode:multiply" opacity="0.4" filter="url(#filter0_f_5514_63060)"><path d="M71.2995 92.4695C72.9091 92.4695 74.2184 93.9006 74.2184 95.6599C74.2184 97.4192 72.9091 98.8493 71.2995 98.8493H6.63658C5.02708 98.8493 3.71777 97.4192 3.71777 95.6599C3.71777 93.9006 5.02708 92.4695 6.63658 92.4695H27.589C27.7737 92.4669 27.9547 92.4178 28.1154 92.3267C28.276 92.2356 28.411 92.1055 28.5078 91.9484C28.612 91.7831 28.6784 91.5968 28.7022 91.4029C28.726 91.209 28.7067 91.0122 28.6455 90.8266C28.4187 90.1383 28.2513 89.4318 28.1452 88.715C28.1185 88.5029 28.0355 88.3017 27.9049 88.1324C27.7742 87.963 27.6005 87.8316 27.4019 87.7518C21.8157 85.6525 16.7854 81.9952 12.8557 77.1733C12.7557 77.0465 12.6285 76.9437 12.4835 76.8725C12.3385 76.8013 12.1793 76.7635 12.0177 76.7618H6.63699C5.02749 76.7618 3.71818 75.3311 3.71818 73.5718C3.71818 71.8125 5.02749 70.3803 6.63699 70.3803H22.8041C24.4132 70.3823 25.7225 71.8124 25.7215 73.5653C25.7137 74.9436 24.898 76.1438 23.6925 76.548C23.4786 76.6258 23.2913 76.7626 23.1523 76.9426C23.0133 77.1226 22.9284 77.3382 22.9074 77.5645C22.8775 77.7935 22.9106 78.0263 23.0032 78.2379C23.0958 78.4495 23.2443 78.6319 23.4329 78.7657C24.9165 79.7642 26.4928 80.6181 28.14 81.3156C28.2674 81.3702 28.4046 81.3982 28.5433 81.3979C28.7467 81.3944 28.9452 81.3351 29.1171 81.2265C29.289 81.1179 29.4277 80.9642 29.518 80.7821C30.4065 79.0707 31.7109 77.6092 33.3117 76.5317C34.9823 75.4087 36.9486 74.805 38.9625 74.7967C42.811 74.7967 46.2995 76.9405 48.2955 80.5303C48.3877 80.7056 48.5256 80.8529 48.6944 80.9566C48.8633 81.0604 49.0571 81.1169 49.2554 81.1201C49.423 81.1196 49.588 81.079 49.7366 81.0016C58.5539 76.4277 64.2866 66.5769 64.3399 55.9028C64.3492 49.0423 62.0314 42.4622 57.8169 37.3763C57.7209 37.2544 57.5992 37.1552 57.4604 37.0856C57.3216 37.016 57.1692 36.9778 57.014 36.9737C56.8588 36.9696 56.7046 36.9997 56.5623 37.0619C56.4201 37.124 56.2933 37.2167 56.1909 37.3333L38.7738 56.3846C38.5146 56.6758 38.1969 56.9092 37.8414 57.0697C37.4859 57.2302 37.1006 57.3142 36.7105 57.3163C35.9313 57.3163 35.199 56.9852 34.6116 56.3446C34.5108 56.2378 34.3888 56.1533 34.2534 56.0963C34.118 56.0394 33.9721 56.0114 33.8252 56.0142C33.6783 56.0169 33.5335 56.0503 33.4003 56.1122C33.2671 56.1742 33.1483 56.2633 33.0517 56.3738L27.3351 62.6218C27.0776 62.9151 26.7604 63.1502 26.4046 63.3112C26.0489 63.4722 25.6627 63.5554 25.2721 63.5553C24.8815 63.5552 24.4954 63.4717 24.1397 63.3104C23.7841 63.1492 23.467 62.9139 23.2098 62.6204L14.6316 53.2485C14.0814 52.6259 13.778 51.8241 13.7783 50.9937C13.7787 50.1634 14.0828 49.3618 14.6335 48.7397L20.3542 42.4841C20.5659 42.2447 20.6828 41.9363 20.683 41.6168C20.6832 41.2974 20.5666 40.9889 20.3551 40.7492C19.8044 40.1267 19.5005 39.3246 19.5007 38.494C19.501 37.6633 19.8053 36.8614 20.3564 36.2392L46.0705 8.13066C46.3829 7.78647 46.7734 7.52211 47.2092 7.35978L55.7819 4.23453C56.0779 4.1264 56.3905 4.07093 56.7057 4.07068C57.0962 4.07274 57.4819 4.15722 57.8375 4.31856C58.1931 4.47991 58.5105 4.71445 58.7689 5.00686L67.3453 14.3786C67.7354 14.8157 68.0053 15.3464 68.1286 15.9188C68.2518 16.4912 68.2244 17.0857 68.0487 17.6444L65.187 27.0196C65.0484 27.4817 64.8077 27.9069 64.4826 28.2637L61.9074 31.0811C61.7007 31.3152 61.5843 31.6152 61.5792 31.9272C61.5741 32.2393 61.6806 32.5429 61.8796 32.7836C67.2423 39.0859 70.1887 47.2956 70.1774 55.894C70.0912 69.8715 62.3698 82.2745 50.5068 87.4906C50.3167 87.5794 50.1529 87.7157 50.0313 87.8864C49.9097 88.0571 49.8344 88.2564 49.8128 88.4648C49.7138 89.2691 49.5385 90.0623 49.2891 90.8335C49.2293 91.0187 49.211 91.2148 49.2355 91.4079C49.26 91.601 49.3267 91.7863 49.4308 91.9508C49.5278 92.1071 49.6627 92.2366 49.8229 92.3273C49.9831 92.4179 50.1636 92.4668 50.3478 92.4694L71.2995 92.4695ZM59.6815 24.49C59.8061 24.3521 59.8986 24.1885 59.9525 24.0108L61.721 18.2153C61.7873 18.0002 61.7971 17.7718 61.7495 17.5518C61.7019 17.3319 61.5985 17.1279 61.4492 16.9594L56.4097 11.4485C56.3099 11.3365 56.1877 11.2467 56.051 11.1848C55.9143 11.1229 55.7661 11.0903 55.616 11.0892C55.4947 11.0889 55.3743 11.1105 55.2606 11.1529L49.9598 13.0849C49.7918 13.1469 49.6414 13.2488 49.5215 13.3817L27.3406 37.6265C27.1289 37.8659 27.012 38.1743 27.0118 38.4938C27.0117 38.8132 27.1283 39.1217 27.3398 39.3614L35.9169 48.745C36.0161 48.858 36.1383 48.9485 36.2753 49.0105C36.4123 49.0725 36.5609 49.1046 36.7114 49.1046C36.8618 49.1046 37.0105 49.0725 37.1475 49.0105C37.2845 48.9485 37.4066 48.858 37.5057 48.745L59.682 24.4896L59.6815 24.49ZM38.9685 92.4681C41.8142 92.4647 44.1304 89.934 44.1335 86.8236C44.1335 83.7116 41.8165 81.1801 38.9685 81.1801C36.1205 81.1801 33.8045 83.7116 33.8045 86.8236C33.8045 89.9356 36.1206 92.4681 38.9685 92.4681ZM28.9248 51.8619C29.1367 51.6223 29.2536 51.3138 29.2537 50.9942C29.2538 50.6746 29.137 50.366 28.9253 50.1264L26.0678 47.0016C25.9688 46.8885 25.8466 46.7979 25.7096 46.7358C25.5726 46.6737 25.4239 46.6415 25.2735 46.6415C25.123 46.6415 24.9743 46.6737 24.8373 46.7358C24.7002 46.7979 24.5781 46.8885 24.479 47.0016L21.618 50.1264C21.4059 50.3658 21.2889 50.6745 21.2889 50.9941C21.2889 51.3138 21.4059 51.6225 21.618 51.8619L24.4797 54.9867C24.5788 55.0994 24.7009 55.1896 24.8377 55.2514C24.9745 55.3132 25.123 55.3451 25.2731 55.345C25.4233 55.3449 25.5718 55.3128 25.7085 55.2508C25.8453 55.1888 25.9672 55.0985 26.0662 54.9857L28.9241 51.8619" fill="#8C59CF"></path></g><path d="M21.556 55.3451H22.5197C22.3698 55.3441 22.2218 55.3118 22.0852 55.25C21.9486 55.1883 21.8266 55.0987 21.7269 54.9869L18.8652 51.8622C18.6531 51.6227 18.536 51.3141 18.536 50.9944C18.536 50.6747 18.6531 50.366 18.8652 50.1265L21.7262 47.0018C21.8258 46.8896 21.948 46.7995 22.0847 46.7375C22.2215 46.6755 22.3698 46.643 22.52 46.642H21.5563C21.4061 46.643 21.2578 46.6755 21.121 46.7375C20.9843 46.7995 20.8621 46.8896 20.7625 47.0018L17.9015 50.1265C17.6894 50.366 17.5723 50.6747 17.5723 50.9944C17.5723 51.3141 17.6894 51.6227 17.9015 51.8622L20.7632 54.9869C20.8629 55.0987 20.985 55.1883 21.1215 55.25C21.2581 55.3118 21.4061 55.3441 21.556 55.3451Z" fill="url(#paint6_linear_5514_63060)"></path><path d="M24.5822 62.6217L30.2988 56.3736C30.3984 56.2614 30.5205 56.1713 30.6573 56.1094C30.7941 56.0474 30.9424 56.0149 31.0925 56.014H30.1289C29.9787 56.0149 29.8304 56.0474 29.6936 56.1094C29.5568 56.1713 29.4347 56.2614 29.3351 56.3736L23.6185 62.6217C23.3597 62.9133 23.0422 63.1471 22.6868 63.308C22.3314 63.4689 21.9461 63.5532 21.5559 63.5555H22.5196C22.9098 63.5532 23.2951 63.4689 23.6505 63.308C24.0059 63.1471 24.3233 62.9133 24.5822 62.6217Z" fill="url(#paint7_linear_5514_63060)"></path><path d="M20.6796 78.7658C20.4911 78.6321 20.3426 78.4497 20.25 78.2381C20.1574 78.0265 20.1243 77.7937 20.1541 77.5647C20.1752 77.3384 20.2601 77.1227 20.3991 76.9427C20.5381 76.7627 20.7253 76.6259 20.9392 76.5481C22.1447 76.1438 22.9605 74.9438 22.9682 73.5654C22.9691 71.8126 21.6598 70.3824 20.0508 70.3804H19.0871C20.6961 70.3824 22.0054 71.8126 22.0044 73.5654C21.9967 74.9438 21.181 76.1438 19.9756 76.5481C19.7617 76.6258 19.5743 76.7627 19.4353 76.9427C19.2963 77.1227 19.2114 77.3384 19.1904 77.5647C19.1606 77.7937 19.1937 78.0265 19.2863 78.2381C19.3788 78.4497 19.5273 78.6321 19.7159 78.7658C21.1995 79.7643 22.7757 80.6182 24.4229 81.3157C24.5503 81.3703 24.6875 81.3983 24.8261 81.398H25.7897C25.6511 81.3983 25.5139 81.3703 25.3865 81.3157C23.7394 80.6182 22.1632 79.7643 20.6796 78.7658Z" fill="url(#paint8_linear_5514_63060)"></path><path d="M36.215 81.1804H35.2513C32.4034 81.1804 30.0874 83.7121 30.0874 86.8239C30.0874 89.9358 32.4034 92.4685 35.2513 92.4685H36.215C33.3671 92.4685 31.051 89.9357 31.051 86.8239C31.051 83.7122 33.3671 81.1804 36.215 81.1804Z" fill="url(#paint9_linear_5514_63060)"></path><path d="M46.502 81.1202C46.3037 81.117 46.1099 81.0605 45.941 80.9567C45.7722 80.853 45.6343 80.7057 45.5421 80.5304C43.5461 76.94 40.0576 74.7969 36.2091 74.7969H35.2454C39.0939 74.7969 42.5824 76.9406 44.5784 80.5304C44.6707 80.7057 44.8085 80.853 44.9774 80.9567C45.1463 81.0605 45.34 81.117 45.5383 81.1202H46.502Z" fill="url(#paint10_linear_5514_63060)"></path><path d="M51.5439 11.1529L46.243 13.0849C46.075 13.1469 45.9246 13.2488 45.8047 13.3818L23.6236 37.6265C23.4119 37.8659 23.2949 38.1743 23.2948 38.4938C23.2946 38.8132 23.4113 39.1217 23.6228 39.3614L32.2 48.7452C32.3 48.857 32.4223 48.9467 32.5589 49.0085C32.6956 49.0704 32.8437 49.103 32.9938 49.1044H33.9575C33.8074 49.103 33.6593 49.0704 33.5226 49.0085C33.3859 48.9467 33.2637 48.857 33.1637 48.7452L24.5861 39.3614C24.3746 39.1217 24.258 38.8132 24.2582 38.4938C24.2584 38.1743 24.3753 37.8659 24.587 37.6265L46.7681 13.3813C46.888 13.2483 47.0384 13.1465 47.2064 13.0844L52.5073 11.1525C52.621 11.1101 52.7413 11.0885 52.8626 11.0887H51.899C51.7778 11.0887 51.6575 11.1104 51.5439 11.1529Z" fill="url(#paint11_linear_5514_63060)"></path><path d="M35.0573 56.3847C34.7981 56.6758 34.4805 56.9092 34.125 57.0697C33.7695 57.2303 33.3842 57.3143 32.994 57.3164H33.9577C34.3479 57.3143 34.7332 57.2303 35.0886 57.0697C35.4441 56.9092 35.7618 56.6758 36.021 56.3847L53.4375 37.3334C53.5412 37.2187 53.6681 37.1273 53.8098 37.0652C53.9516 37.0032 54.1049 36.972 54.2597 36.9736H53.296C53.1412 36.972 52.9879 37.0032 52.8461 37.0653C52.7044 37.1273 52.5774 37.2187 52.4738 37.3334L35.0573 56.3847Z" fill="url(#paint12_linear_5514_63060)"></path><path d="M68.5464 92.4696L47.5949 92.4686C47.4108 92.4659 47.2303 92.417 47.07 92.3264C46.9098 92.2357 46.7749 92.1062 46.678 91.9499C46.5738 91.7854 46.5071 91.6 46.4826 91.407C46.4581 91.2139 46.4764 91.0179 46.5363 90.8327C46.7856 90.0614 46.9609 89.2683 47.06 88.4639C47.0816 88.2555 47.1568 88.0563 47.2785 87.8856C47.4001 87.7149 47.5639 87.5785 47.7539 87.4897C59.617 82.2735 67.3382 69.8707 67.4244 55.8931C67.4357 47.295 64.4894 39.0854 59.1267 32.7826C58.9278 32.5419 58.8213 32.2383 58.8265 31.9263C58.8316 31.6142 58.9479 31.3143 59.1545 31.0802L61.7298 28.2628C62.0549 27.9059 62.2956 27.4808 62.4341 27.0187L65.2958 17.6434C65.4715 17.0848 65.499 16.4902 65.3757 15.9178C65.2524 15.3455 64.9825 14.8148 64.5925 14.3777L56.0155 5.00644C55.7571 4.71402 55.4397 4.47948 55.0842 4.31814C54.7286 4.1568 54.3428 4.07231 53.9523 4.07025H52.9886C53.3791 4.07233 53.7648 4.1568 54.1204 4.31814C54.4759 4.47948 54.7933 4.71403 55.0518 5.00644L63.6282 14.3782C64.0183 14.8153 64.2882 15.346 64.4115 15.9184C64.5348 16.4908 64.5072 17.0853 64.3315 17.6439L61.4699 27.0192C61.3313 27.4813 61.0906 27.9065 60.7655 28.2633L58.1903 31.0807C57.9836 31.3148 57.8672 31.6148 57.8621 31.9269C57.857 32.2389 57.9635 32.5425 58.1625 32.7832C63.5252 39.0855 66.4715 47.2952 66.4602 55.8937C66.374 69.8712 58.6528 82.274 46.7897 87.4903C46.5996 87.579 46.4358 87.7154 46.3142 87.8861C46.1926 88.0568 46.1174 88.256 46.0957 88.4644C45.9967 89.2688 45.8214 90.062 45.5721 90.8332C45.5123 91.0184 45.4939 91.2145 45.5184 91.4075C45.5429 91.6006 45.6096 91.7859 45.7138 91.9504C45.8107 92.1068 45.9455 92.2363 46.1058 92.3269C46.2661 92.4176 46.4466 92.4665 46.6308 92.4691L67.5822 92.4701C69.1917 92.4701 70.501 93.9012 70.501 95.6605C70.501 97.4198 69.1917 98.85 67.5822 98.85H68.5458C70.1554 98.85 71.4646 97.4197 71.4646 95.6605C71.4646 93.9013 70.1559 92.4696 68.5464 92.4696Z" fill="url(#paint13_linear_5514_63060)"></path><path d="M67.582 92.4695C69.1916 92.4695 70.5009 93.9006 70.5009 95.6599C70.5009 97.4192 69.1916 98.8493 67.582 98.8493H2.9188C1.30931 98.8493 0 97.4192 0 95.6599C0 93.9006 1.30931 92.4695 2.9188 92.4695H23.8711C24.0558 92.4669 24.2369 92.4178 24.3975 92.3267C24.5581 92.2356 24.6931 92.1055 24.7899 91.9484C24.8942 91.7831 24.9606 91.5968 24.9844 91.4029C25.0082 91.209 24.9888 91.0122 24.9276 90.8266C24.7008 90.1383 24.5335 89.4318 24.4274 88.715C24.4007 88.5028 24.3177 88.3017 24.1871 88.1324C24.0564 87.963 23.8827 87.8316 23.6841 87.7518C18.098 85.6525 13.0676 81.9952 9.13789 77.1733C9.0379 77.0465 8.91072 76.9437 8.76571 76.8725C8.62069 76.8013 8.46152 76.7635 8.29992 76.7618H2.9188C1.30931 76.7618 0 75.3311 0 73.5718C0 71.8125 1.30931 70.3803 2.9188 70.3803H19.0862C20.6953 70.3823 22.0047 71.8124 22.0037 73.5653C21.9959 74.9436 21.1802 76.1438 19.9746 76.548C19.7608 76.6258 19.5735 76.7626 19.4345 76.9426C19.2955 77.1225 19.2106 77.3382 19.1896 77.5645C19.1597 77.7935 19.1928 78.0263 19.2854 78.2379C19.378 78.4495 19.5265 78.6319 19.715 78.7657C21.1987 79.7642 22.775 80.6181 24.4222 81.3156C24.5496 81.3702 24.6868 81.3982 24.8254 81.3979C25.0288 81.3944 25.2274 81.3351 25.3993 81.2265C25.5712 81.1179 25.7099 80.9641 25.8002 80.7821C26.6887 79.0707 27.9931 77.6092 29.5939 76.5317C31.2645 75.4087 33.2308 74.805 35.2446 74.7967C39.0931 74.7967 42.5817 76.9405 44.5777 80.5303C44.6699 80.7056 44.8077 80.8529 44.9766 80.9566C45.1455 81.0604 45.3393 81.1169 45.5375 81.1201C45.7051 81.1196 45.8702 81.079 46.0188 81.0016C54.836 76.4277 60.5686 66.5769 60.622 55.9028C60.6312 49.0423 58.3135 42.4622 54.099 37.3763C54.0029 37.2544 53.8813 37.1552 53.7426 37.0856C53.6038 37.016 53.4514 36.9778 53.2961 36.9737C53.1409 36.9696 52.9867 36.9997 52.8445 37.0619C52.7022 37.124 52.5753 37.2167 52.473 37.3333L35.0567 56.3846C34.7975 56.6758 34.4798 56.9092 34.1243 57.0697C33.7688 57.2302 33.3835 57.3142 32.9934 57.3163C32.2142 57.3163 31.4819 56.9852 30.8945 56.3446C30.7937 56.2378 30.6718 56.1533 30.5363 56.0963C30.4009 56.0394 30.255 56.0114 30.1081 56.0142C29.9612 56.0169 29.8165 56.0503 29.6832 56.1122C29.55 56.1742 29.4313 56.2633 29.3346 56.3738L23.618 62.6218C23.3606 62.9151 23.0433 63.1502 22.6876 63.3112C22.3318 63.4722 21.9456 63.5554 21.555 63.5553C21.1644 63.5552 20.7783 63.4717 20.4227 63.3104C20.067 63.1492 19.7499 62.9139 19.4927 62.6204L10.9145 53.2485C10.3644 52.6259 10.0609 51.8241 10.0613 50.9937C10.0616 50.1634 10.3657 49.3618 10.9164 48.7396L16.6371 42.4841C16.8488 42.2447 16.9657 41.9363 16.9659 41.6168C16.9661 41.2974 16.8495 40.9889 16.638 40.7492C16.0873 40.1267 15.7834 39.3246 15.7837 38.494C15.7839 37.6633 16.0882 36.8614 16.6393 36.2392L42.3535 8.13066C42.6658 7.78647 43.0563 7.52211 43.4921 7.35978L52.0648 4.23453C52.3607 4.1264 52.6734 4.07093 52.9886 4.07068C53.379 4.07278 53.7645 4.15724 54.12 4.31852C54.4755 4.47979 54.7927 4.71423 55.0511 5.0065L63.6275 14.3783C64.0176 14.8154 64.2875 15.346 64.4108 15.9184C64.5341 16.4908 64.5065 17.0854 64.3309 17.644L61.4692 27.0192C61.3306 27.4813 61.0899 27.9065 60.7649 28.2634L58.1897 31.0807C57.983 31.3148 57.8666 31.6148 57.8615 31.9268C57.8564 32.2389 57.9629 32.5425 58.1618 32.7832C63.5245 39.0856 66.4709 47.2952 66.4596 55.8937C66.3733 69.8712 58.6521 82.2741 46.789 87.4902C46.599 87.579 46.4352 87.7153 46.3136 87.8861C46.192 88.0568 46.1167 88.256 46.0951 88.4644C45.9961 89.2687 45.8207 90.0619 45.5714 90.8331C45.5116 91.0184 45.4933 91.2145 45.5178 91.4076C45.5423 91.6006 45.6089 91.786 45.7131 91.9504C45.8101 92.1068 45.9449 92.2363 46.1052 92.3269C46.2654 92.4175 46.4459 92.4664 46.6301 92.469L67.582 92.4695ZM55.9641 24.49C56.0886 24.3521 56.1811 24.1885 56.235 24.0108L58.0035 18.2153C58.0698 18.0002 58.0797 17.7718 58.0321 17.5518C57.9845 17.3319 57.8811 17.1279 57.7317 16.9594L52.6922 11.4485C52.5924 11.3365 52.4703 11.2467 52.3336 11.1848C52.1969 11.1229 52.0487 11.0903 51.8986 11.0892C51.7772 11.0889 51.6568 11.1105 51.5432 11.1529L46.2424 13.0849C46.0743 13.1469 45.9239 13.2488 45.804 13.3817L23.6232 37.6265C23.4114 37.8659 23.2945 38.1743 23.2944 38.4938C23.2942 38.8132 23.4108 39.1217 23.6223 39.3614L32.1995 48.745C32.2986 48.858 32.4208 48.9485 32.5578 49.0105C32.6948 49.0725 32.8435 49.1046 32.9939 49.1046C33.1443 49.1046 33.293 49.0725 33.43 49.0105C33.567 48.9485 33.6892 48.858 33.7883 48.745L55.9641 24.49ZM35.2511 92.4681C38.0968 92.4647 40.4129 89.934 40.4161 86.8236C40.4161 83.7116 38.0991 81.1801 35.2511 81.1801C32.4031 81.1801 30.0871 83.7116 30.0871 86.8236C30.0871 89.9356 32.4032 92.4681 35.2511 92.4681ZM25.2074 51.8619C25.4192 51.6223 25.5361 51.3138 25.5362 50.9942C25.5363 50.6746 25.4195 50.366 25.2079 50.1263L22.3504 47.0016C22.2513 46.8885 22.1292 46.7979 21.9922 46.7358C21.8552 46.6737 21.7064 46.6415 21.556 46.6415C21.4055 46.6415 21.2568 46.6737 21.1198 46.7358C20.9828 46.7979 20.8607 46.8885 20.7616 47.0016L17.9006 50.1263C17.6885 50.3658 17.5714 50.6745 17.5714 50.9941C17.5714 51.3138 17.6885 51.6225 17.9006 51.8619L20.7622 54.9867C20.8614 55.0994 20.9834 55.1896 21.1202 55.2514C21.2571 55.3132 21.4055 55.3451 21.5557 55.345C21.7059 55.3449 21.8543 55.3128 21.9911 55.2508C22.1278 55.1888 22.2498 55.0985 22.3487 54.9857L25.2074 51.8619Z" fill="#F2DFFF"></path><defs><filter id="filter0_f_5514_63060" x="0.595946" y="0.948852" width="76.7446" height="101.022" filterUnits="userSpaceOnUse" color-interpolation-filters="sRGB"><feFlood flood-opacity="0" result="BackgroundImageFix"></feFlood><feBlend mode="normal" in="SourceGraphic" in2="BackgroundImageFix" result="shape"></feBlend><feGaussianBlur stdDeviation="1.56091" result="effect1_foregroundBlur_5514_63060"></feGaussianBlur></filter><linearGradient id="paint0_linear_5514_63060" x1="51.3246" y1="1" x2="51.3246" y2="101.919" gradientUnits="userSpaceOnUse"><stop stop-color="#6B3FAA"></stop><stop offset="1" stop-color="#C798FD"></stop></linearGradient><linearGradient id="paint1_linear_5514_63060" x1="51.3246" y1="1" x2="51.3246" y2="101.919" gradientUnits="userSpaceOnUse"><stop stop-color="#6B3FAA"></stop><stop offset="1" stop-color="#C798FD"></stop></linearGradient><linearGradient id="paint2_linear_5514_63060" x1="51.3246" y1="1" x2="51.3246" y2="101.919" gradientUnits="userSpaceOnUse"><stop stop-color="#6B3FAA"></stop><stop offset="1" stop-color="#C798FD"></stop></linearGradient><linearGradient id="paint3_linear_5514_63060" x1="51.3246" y1="1" x2="51.3246" y2="101.919" gradientUnits="userSpaceOnUse"><stop stop-color="#6B3FAA"></stop><stop offset="1" stop-color="#C798FD"></stop></linearGradient><linearGradient id="paint4_linear_5514_63060" x1="51.3246" y1="1" x2="51.3246" y2="101.919" gradientUnits="userSpaceOnUse"><stop stop-color="#6B3FAA"></stop><stop offset="1" stop-color="#C798FD"></stop></linearGradient><linearGradient id="paint5_linear_5514_63060" x1="51.3246" y1="1" x2="51.3246" y2="101.919" gradientUnits="userSpaceOnUse"><stop stop-color="#6B3FAA"></stop><stop offset="1" stop-color="#C798FD"></stop></linearGradient><linearGradient id="paint6_linear_5514_63060" x1="37.1923" y1="4.07025" x2="37.1923" y2="98.85" gradientUnits="userSpaceOnUse"><stop stop-color="#6B3FAA"></stop><stop offset="1" stop-color="#DAC8FF"></stop></linearGradient><linearGradient id="paint7_linear_5514_63060" x1="37.1923" y1="4.07025" x2="37.1923" y2="98.85" gradientUnits="userSpaceOnUse"><stop stop-color="#6B3FAA"></stop><stop offset="1" stop-color="#DAC8FF"></stop></linearGradient><linearGradient id="paint8_linear_5514_63060" x1="37.1923" y1="4.07025" x2="37.1923" y2="98.85" gradientUnits="userSpaceOnUse"><stop stop-color="#6B3FAA"></stop><stop offset="1" stop-color="#DAC8FF"></stop></linearGradient><linearGradient id="paint9_linear_5514_63060" x1="37.1923" y1="4.07025" x2="37.1923" y2="98.85" gradientUnits="userSpaceOnUse"><stop stop-color="#6B3FAA"></stop><stop offset="1" stop-color="#DAC8FF"></stop></linearGradient><linearGradient id="paint10_linear_5514_63060" x1="37.1923" y1="4.07025" x2="37.1923" y2="98.85" gradientUnits="userSpaceOnUse"><stop stop-color="#6B3FAA"></stop><stop offset="1" stop-color="#DAC8FF"></stop></linearGradient><linearGradient id="paint11_linear_5514_63060" x1="37.1923" y1="4.07025" x2="37.1923" y2="98.85" gradientUnits="userSpaceOnUse"><stop stop-color="#6B3FAA"></stop><stop offset="1" stop-color="#DAC8FF"></stop></linearGradient><linearGradient id="paint12_linear_5514_63060" x1="37.1923" y1="4.07025" x2="37.1923" y2="98.85" gradientUnits="userSpaceOnUse"><stop stop-color="#6B3FAA"></stop><stop offset="1" stop-color="#DAC8FF"></stop></linearGradient><linearGradient id="paint13_linear_5514_63060" x1="37.1923" y1="4.07025" x2="37.1923" y2="98.85" gradientUnits="userSpaceOnUse"><stop stop-color="#6B3FAA"></stop><stop offset="1" stop-color="#DAC8FF"></stop></linearGradient></defs></svg> 