<?xml version="1.0" encoding="UTF-8"?> <svg xmlns="http://www.w3.org/2000/svg" width="80" height="101" viewBox="0 0 80 101" fill="none"><path d="M13.1494 21.9636V51.133C13.1494 68.8271 30.9592 81.6784 37.8697 85.9958H42.2765C35.366 81.6784 17.5562 68.8271 17.5562 51.133V22.0108H19.4297C29.4362 22.0108 37.6785 18.0142 42.262 15.2285H37.8552C33.5632 17.837 26.0624 21.5073 16.91 21.9636H13.1494Z" fill="url(#paint0_linear_5514_63066)"></path><path d="M14.9877 8.00589H19.3945C17.1476 8.01035 14.9109 7.70429 12.748 7.09641C12.2292 6.95065 11.6928 6.87668 11.1539 6.87657H6.74707C7.28601 6.87668 7.8224 6.95065 8.3412 7.09641C10.5041 7.70429 12.7408 8.01035 14.9877 8.00589Z" fill="url(#paint1_linear_5514_63066)"></path><path d="M46.7217 57.6182H44.1359V60.445C44.1359 64.2311 41.3193 67.3095 37.8558 67.3095H42.2627C45.7262 67.3095 48.5428 64.2307 48.5428 60.445V57.6182H51.1291C54.5924 57.6182 57.4092 54.5395 57.4092 50.7539C57.4092 46.9683 54.5924 43.8864 51.1291 43.8864H48.5428V41.0596C48.5428 37.2735 45.7262 34.1951 42.2627 34.1951H37.8558C41.3193 34.1951 44.1359 37.2739 44.1359 41.0596V43.8864H46.7222C50.1856 43.8864 53.0023 46.9676 53.0023 50.7539C53.0023 54.5401 50.185 57.6182 46.7217 57.6182Z" fill="url(#paint2_linear_5514_63066)"></path><path d="M60.7258 8.00275H65.1325C54.5194 8.00275 46.1641 1.4376 46.0866 1.37236C45.012 0.488399 43.664 0.00344722 42.2717 0H37.8648C39.2571 0.00334285 40.6053 0.488224 41.6799 1.37216C41.7577 1.4376 50.1127 8.00275 60.7258 8.00275Z" fill="url(#paint3_linear_5514_63066)"></path><path d="M60.7062 22.0103H65.1133C65.724 22.0103 66.3428 21.9951 66.9653 21.9636H62.5583C61.9359 21.9951 61.3171 22.0103 60.7062 22.0103Z" fill="url(#paint4_linear_5514_63066)"></path><path d="M75.3645 13.8764V51.1329C75.3645 82.1466 41.9849 99.5388 40.564 100.261C39.7262 100.692 38.7977 100.917 37.8553 100.918H42.2622C43.2046 100.917 44.1331 100.692 44.9709 100.261C46.3918 99.5382 79.7713 82.1461 79.7713 51.1329V13.8764C79.7713 11.7131 78.8579 9.67035 77.2917 8.3448C76.2008 7.40378 74.8091 6.88304 73.3676 6.87657H68.9609C70.4025 6.88304 71.7942 7.40378 72.8851 8.3448C74.451 9.67035 75.3645 11.7128 75.3645 13.8764Z" fill="url(#paint5_linear_5514_63066)"></path><path d="M46.7222 43.8864C50.1855 43.8864 53.0023 46.9678 53.0023 50.7539C53.0023 54.54 50.1855 57.6182 46.7222 57.6182H44.1365V60.4451C44.1365 64.2307 41.3198 67.3095 37.8564 67.3094C34.3929 67.3093 31.5735 64.2306 31.5735 60.445V57.6181H28.9878C25.524 57.6181 22.7072 54.5394 22.7072 50.7538C22.7072 46.9682 25.524 43.8863 28.9878 43.8863H31.5735V41.0595C31.5735 37.2739 34.393 34.1951 37.8564 34.1951C41.3197 34.1951 44.1365 37.274 44.1365 41.0596V43.8864H46.7222Z" fill="#CB99FF"></path><path d="M72.8853 8.34482C74.4515 9.67047 75.3649 11.7137 75.3649 13.8764V51.133C75.3649 82.1466 41.9855 99.5383 40.5646 100.261C39.7273 100.693 38.7986 100.919 37.8562 100.919C36.9137 100.919 35.9851 100.693 35.1478 100.261C33.7254 99.5388 0.34375 82.1466 0.34375 51.1335V13.8763C0.34375 11.713 1.25761 9.67037 2.8243 8.34472C3.91488 7.40378 5.30637 6.88308 6.74764 6.87658C7.28658 6.8767 7.82297 6.95067 8.34177 7.09642C10.5046 7.70422 12.7413 8.01025 14.9882 8.0058C25.5987 8.0058 33.9549 1.43302 34.0555 1.35364C35.1343 0.482581 36.4784 0.00507087 37.8657 0C39.2579 0.00346897 40.606 0.488378 41.6806 1.37226C41.7583 1.4374 50.1134 8.00255 60.7265 8.00255C62.9712 8.00702 65.2058 7.70203 67.367 7.09622C67.8859 6.95047 68.4224 6.8765 68.9614 6.87638C70.4029 6.88299 71.7945 7.40379 72.8853 8.34482ZM62.559 51.133V21.9636C61.9365 21.9952 61.3177 22.0105 60.7069 22.0105C50.7596 22.0105 42.4399 18.0152 37.8559 15.2284C33.2724 18.0141 25.03 22.0109 15.0236 22.0109C14.4052 22.0109 13.7807 21.9951 13.1501 21.9635V51.1329C13.1501 68.8269 30.96 81.6783 37.8704 85.9958C44.8125 81.7023 62.559 68.9822 62.559 51.133Z" fill="#CB99FF"></path><g style="mix-blend-mode:multiply" opacity="0.4" filter="url(#filter0_f_5514_63066)"><path d="M47.3776 47.2611C49.1432 47.2611 50.5787 48.8301 50.5787 50.76C50.5787 52.6899 49.1432 54.2612 47.3776 54.2612H42.9439C42.2641 54.2612 41.7118 54.8631 41.7118 55.6066V60.452C41.7118 62.3823 40.2756 63.9522 38.5096 63.9522C36.7437 63.9522 35.3078 62.3823 35.3078 60.452V55.6065C35.3078 54.863 34.7563 54.2611 34.0766 54.2611H29.6428C27.8773 54.2611 26.4424 52.6903 26.4424 50.7599C26.4424 48.8296 27.8778 47.261 29.6428 47.261H34.0764C34.7561 47.261 35.3076 46.6582 35.3076 45.9143V41.068C35.3076 39.1377 36.7448 37.5679 38.5094 37.5679C40.2741 37.5679 41.7116 39.1377 41.7116 41.068V45.9144C41.7116 46.6583 42.2639 47.2611 42.9437 47.2611H47.3776Z" fill="#8C59CF"></path></g><g style="mix-blend-mode:multiply" opacity="0.4" filter="url(#filter1_f_5514_63066)"><path d="M71.6549 11.0106C72.0642 11.3679 72.3912 11.8096 72.6133 12.3052C72.8353 12.8007 72.9473 13.3385 72.9413 13.8813V51.1365C72.9413 80.0317 41.2646 96.5292 39.9182 97.2185C39.4829 97.4419 39.0006 97.5584 38.5111 97.5584C38.0217 97.5584 37.5393 97.4419 37.104 97.2185C35.7565 96.5296 4.07736 80.0317 4.07736 51.1365V13.8812C4.07158 13.3383 4.18362 12.8005 4.40583 12.305C4.62804 11.8094 4.95513 11.3678 5.36457 11.0105C5.93456 10.5221 6.66 10.2522 7.41105 10.2491C7.68783 10.2492 7.96328 10.2869 8.2299 10.3611C10.6333 11.0366 13.1187 11.3769 15.6154 11.3723C27.3099 11.3723 36.4234 4.15916 36.5318 4.07184C37.0919 3.61503 37.792 3.36401 38.5152 3.36072C39.2385 3.36316 39.9384 3.61655 40.4953 4.07754C40.5992 4.16272 49.6992 11.3693 61.4032 11.3693C63.9 11.3737 66.3856 11.0345 68.7896 10.3611C69.0568 10.2856 69.3331 10.2473 69.6108 10.2475C70.3612 10.2519 71.0857 10.5223 71.6549 11.0106V11.0106ZM66.293 51.1366V18.2908C64.6459 18.5356 62.9829 18.6581 61.3177 18.6572C50.7922 18.6572 42.2309 13.8383 38.5112 11.3463C34.793 13.8383 26.2525 18.6572 15.7118 18.6572C14.0432 18.658 12.3769 18.5355 10.7264 18.2908V51.1365C10.7264 72.2677 32.6734 86.4494 38.5114 89.8464C44.3488 86.4494 66.2932 72.2677 66.2932 51.1365" fill="#8C59CF"></path></g><path d="M6.64926 18.2908V51.1364C6.64926 72.2676 28.5963 86.4491 34.4343 89.8463H35.4913C29.6535 86.4491 7.70634 72.2676 7.70634 51.1364V18.2908H6.64926Z" fill="url(#paint6_linear_5514_63066)"></path><path d="M12.5956 11.3721C10.0988 11.3767 7.6134 11.0364 5.21001 10.3609C4.9434 10.2867 4.6679 10.249 4.39112 10.2489H3.33398C3.61076 10.249 3.88621 10.2867 4.15283 10.3609C6.55621 11.0364 9.04162 11.3767 11.5384 11.3721H12.5956Z" fill="url(#paint7_linear_5514_63066)"></path><path d="M12.6921 18.6573C23.2328 18.6573 31.7733 13.8383 35.4914 11.3463H34.4344C30.7162 13.8383 22.1756 18.6573 11.6349 18.6573H12.6921Z" fill="url(#paint8_linear_5514_63066)"></path><path d="M35.4892 63.952C37.2551 63.952 38.6914 62.382 38.6914 60.4518V55.6062C38.6914 54.8632 39.2437 54.2608 39.9235 54.2608H38.8667C38.187 54.2608 37.6346 54.8628 37.6346 55.6062V60.4518C37.6346 62.382 36.1984 63.952 34.4324 63.952H35.4892Z" fill="url(#paint9_linear_5514_63066)"></path><path d="M35.4891 37.5678H34.432C36.198 37.5678 37.6342 39.1377 37.6342 41.068V45.9144C37.6342 46.6583 38.1866 47.2611 38.8663 47.2611H39.9235C39.2437 47.2611 38.6914 46.6583 38.6914 45.9144V41.068C38.6914 39.1377 37.2551 37.5678 35.4891 37.5678Z" fill="url(#paint10_linear_5514_63066)"></path><path d="M43.3004 47.2611C45.066 47.2611 46.5015 48.8301 46.5015 50.76C46.5015 52.6899 45.066 54.2611 43.3004 54.2611H44.3576C46.1232 54.2611 47.5587 52.6904 47.5587 50.76C47.5587 48.8295 46.1232 47.2611 44.3576 47.2611H43.3004Z" fill="url(#paint11_linear_5514_63066)"></path><path d="M57.3259 11.369H58.383C46.6795 11.369 37.5792 4.16248 37.4752 4.07729C36.9184 3.61631 36.2184 3.36291 35.4951 3.36047H34.4379C35.1612 3.36291 35.8612 3.61631 36.4181 4.07729C36.5223 4.16248 45.6223 11.369 57.3259 11.369Z" fill="url(#paint12_linear_5514_63066)"></path><path d="M58.2975 18.6572C59.9627 18.658 61.6258 18.5355 63.2729 18.2908H62.2157C60.5686 18.5355 58.9056 18.658 57.2404 18.6572H58.2975Z" fill="url(#paint13_linear_5514_63066)"></path><path d="M68.8639 13.8811V51.1364C68.8639 80.0316 37.1875 96.5291 35.8412 97.2184C35.4057 97.441 34.9238 97.5574 34.4346 97.5583H35.4917C35.981 97.5575 36.4632 97.4411 36.8988 97.2184C38.2452 96.5295 69.9216 80.0316 69.9216 51.1364V13.8811C69.9275 13.3382 69.8156 12.8005 69.5935 12.305C69.3714 11.8094 69.0445 11.3677 68.6352 11.0104C68.0658 10.5218 67.341 10.2513 66.5902 10.2472H65.5331C66.2835 10.2515 67.008 10.5221 67.5772 11.0105C67.9866 11.3678 68.3136 11.8094 68.5357 12.305C68.7578 12.8005 68.8698 13.3382 68.8639 13.8811Z" fill="url(#paint14_linear_5514_63066)"></path><path d="M43.3004 47.2611C45.0659 47.2611 46.5014 48.8301 46.5014 50.76C46.5014 52.6899 45.0659 54.2611 43.3004 54.2611H38.8666C38.1869 54.2611 37.6346 54.863 37.6346 55.6065V60.4519C37.6346 62.3823 36.1983 63.9522 34.4324 63.9522C32.6664 63.9522 31.2306 62.3823 31.2306 60.4519V55.6064C31.2306 54.8629 30.679 54.261 29.9993 54.261H25.5655C23.8 54.261 22.3651 52.6902 22.3651 50.7599C22.3651 48.8296 23.8005 47.261 25.5655 47.261H29.9991C30.6788 47.261 31.2304 46.6582 31.2304 45.9143V41.0679C31.2304 39.1376 32.6675 37.5678 34.4322 37.5678C36.1968 37.5678 37.6344 39.1376 37.6344 41.0679V45.9144C37.6344 46.6583 38.1867 47.2611 38.8664 47.2611H43.3004Z" fill="#F2DFFF"></path><path d="M67.5777 11.0106C67.987 11.3679 68.314 11.8096 68.536 12.3052C68.7581 12.8007 68.87 13.3385 68.8641 13.8813V51.1365C68.8641 80.0317 37.1874 96.5292 35.8411 97.2185C35.4057 97.4419 34.9234 97.5584 34.434 97.5584C33.9445 97.5584 33.4621 97.4419 33.0268 97.2185C31.6793 96.5296 0.000213126 80.0317 0.000213126 51.1365V13.8812C-0.0055719 13.3383 0.106476 12.8005 0.328685 12.305C0.550893 11.8094 0.877979 11.3678 1.28742 11.0105C1.8574 10.5221 2.58285 10.2522 3.3339 10.2491C3.61068 10.2492 3.88613 10.2869 4.15274 10.3611C6.55612 11.0366 9.04151 11.3769 11.5383 11.3723C23.2327 11.3723 32.3462 4.15916 32.4546 4.07184C33.0147 3.61503 33.7148 3.36401 34.4379 3.36072C35.1612 3.36316 35.8612 3.61655 36.4181 4.07754C36.522 4.16272 45.622 11.3693 57.326 11.3693C59.8228 11.3737 62.3084 11.0345 64.7124 10.3611C64.9796 10.2856 65.2559 10.2473 65.5336 10.2475C66.284 10.2519 67.0085 10.5223 67.5777 11.0106ZM62.2158 51.1365V18.2908C60.5687 18.5356 58.9057 18.6581 57.2405 18.6572C46.715 18.6572 38.1537 13.8383 34.434 11.3463C30.7159 13.8383 22.1753 18.6572 11.6346 18.6572C9.96606 18.658 8.29971 18.5355 6.64923 18.2908V51.1365C6.64923 72.2677 28.5962 86.4494 34.4342 89.8464C40.2716 86.4494 62.2158 72.2677 62.2158 51.1365Z" fill="#F2DFFF"></path><defs><filter id="filter0_f_5514_63066" x="23.5991" y="34.7246" width="29.8233" height="32.071" filterUnits="userSpaceOnUse" color-interpolation-filters="sRGB"><feFlood flood-opacity="0" result="BackgroundImageFix"></feFlood><feBlend mode="normal" in="SourceGraphic" in2="BackgroundImageFix" result="shape"></feBlend><feGaussianBlur stdDeviation="1.42164" result="effect1_foregroundBlur_5514_63066"></feGaussianBlur></filter><filter id="filter1_f_5514_63066" x="1.23387" y="0.517436" width="74.5508" height="99.8842" filterUnits="userSpaceOnUse" color-interpolation-filters="sRGB"><feFlood flood-opacity="0" result="BackgroundImageFix"></feFlood><feBlend mode="normal" in="SourceGraphic" in2="BackgroundImageFix" result="shape"></feBlend><feGaussianBlur stdDeviation="1.42164" result="effect1_foregroundBlur_5514_63066"></feGaussianBlur></filter><linearGradient id="paint0_linear_5514_63066" x1="43.2592" y1="0" x2="43.2592" y2="100.918" gradientUnits="userSpaceOnUse"><stop stop-color="#6B3FAA"></stop><stop offset="1" stop-color="#C798FD"></stop></linearGradient><linearGradient id="paint1_linear_5514_63066" x1="43.2592" y1="0" x2="43.2592" y2="100.918" gradientUnits="userSpaceOnUse"><stop stop-color="#6B3FAA"></stop><stop offset="1" stop-color="#C798FD"></stop></linearGradient><linearGradient id="paint2_linear_5514_63066" x1="43.2592" y1="0" x2="43.2592" y2="100.918" gradientUnits="userSpaceOnUse"><stop stop-color="#6B3FAA"></stop><stop offset="1" stop-color="#C798FD"></stop></linearGradient><linearGradient id="paint3_linear_5514_63066" x1="43.2592" y1="0" x2="43.2592" y2="100.918" gradientUnits="userSpaceOnUse"><stop stop-color="#6B3FAA"></stop><stop offset="1" stop-color="#C798FD"></stop></linearGradient><linearGradient id="paint4_linear_5514_63066" x1="43.2592" y1="0" x2="43.2592" y2="100.918" gradientUnits="userSpaceOnUse"><stop stop-color="#6B3FAA"></stop><stop offset="1" stop-color="#C798FD"></stop></linearGradient><linearGradient id="paint5_linear_5514_63066" x1="43.2592" y1="0" x2="43.2592" y2="100.918" gradientUnits="userSpaceOnUse"><stop stop-color="#6B3FAA"></stop><stop offset="1" stop-color="#C798FD"></stop></linearGradient><linearGradient id="paint6_linear_5514_63066" x1="36.6279" y1="3.36047" x2="36.6279" y2="97.5583" gradientUnits="userSpaceOnUse"><stop stop-color="#6B3FAA"></stop><stop offset="1" stop-color="#DAC8FF"></stop></linearGradient><linearGradient id="paint7_linear_5514_63066" x1="36.6279" y1="3.36047" x2="36.6279" y2="97.5583" gradientUnits="userSpaceOnUse"><stop stop-color="#6B3FAA"></stop><stop offset="1" stop-color="#DAC8FF"></stop></linearGradient><linearGradient id="paint8_linear_5514_63066" x1="36.6279" y1="3.36047" x2="36.6279" y2="97.5583" gradientUnits="userSpaceOnUse"><stop stop-color="#6B3FAA"></stop><stop offset="1" stop-color="#DAC8FF"></stop></linearGradient><linearGradient id="paint9_linear_5514_63066" x1="36.6279" y1="3.36047" x2="36.6279" y2="97.5583" gradientUnits="userSpaceOnUse"><stop stop-color="#6B3FAA"></stop><stop offset="1" stop-color="#DAC8FF"></stop></linearGradient><linearGradient id="paint10_linear_5514_63066" x1="36.6279" y1="3.36047" x2="36.6279" y2="97.5583" gradientUnits="userSpaceOnUse"><stop stop-color="#6B3FAA"></stop><stop offset="1" stop-color="#DAC8FF"></stop></linearGradient><linearGradient id="paint11_linear_5514_63066" x1="36.6279" y1="3.36047" x2="36.6279" y2="97.5583" gradientUnits="userSpaceOnUse"><stop stop-color="#6B3FAA"></stop><stop offset="1" stop-color="#DAC8FF"></stop></linearGradient><linearGradient id="paint12_linear_5514_63066" x1="36.6279" y1="3.36047" x2="36.6279" y2="97.5583" gradientUnits="userSpaceOnUse"><stop stop-color="#6B3FAA"></stop><stop offset="1" stop-color="#DAC8FF"></stop></linearGradient><linearGradient id="paint13_linear_5514_63066" x1="36.6279" y1="3.36047" x2="36.6279" y2="97.5583" gradientUnits="userSpaceOnUse"><stop stop-color="#6B3FAA"></stop><stop offset="1" stop-color="#DAC8FF"></stop></linearGradient><linearGradient id="paint14_linear_5514_63066" x1="36.6279" y1="3.36047" x2="36.6279" y2="97.5583" gradientUnits="userSpaceOnUse"><stop stop-color="#6B3FAA"></stop><stop offset="1" stop-color="#DAC8FF"></stop></linearGradient></defs></svg> 