<?xml version="1.0" encoding="UTF-8"?> <svg xmlns="http://www.w3.org/2000/svg" width="95" height="99" viewBox="0 0 95 99" fill="none"><path d="M16.8988 82.3758V51.2388H12.5977V82.3758C12.5977 83.8977 13.7286 85.1339 15.121 85.1339H19.422C18.0297 85.134 16.8988 83.8978 16.8988 82.3758Z" fill="url(#paint0_linear_5514_63035)"></path><path d="M12.5977 35.0782V37.8367H16.8988V35.0782C16.8988 33.5569 18.0297 32.3202 19.422 32.3202H15.121C13.7286 32.3202 12.5977 33.5569 12.5977 35.0782Z" fill="url(#paint1_linear_5514_63035)"></path><path d="M34.2327 16.1596V18.9174H38.5338V16.1596C38.5338 14.637 39.6658 13.4003 41.0576 13.4003H36.7565C35.3647 13.4003 34.2327 14.637 34.2327 16.1596Z" fill="url(#paint2_linear_5514_63035)"></path><path d="M54.0658 74.888H51.542V77.6468C51.542 81.342 48.7904 84.3462 45.41 84.3462H49.711C53.0914 84.3462 55.843 81.3417 55.843 77.6468V74.888H58.3669C61.7474 74.888 64.4961 71.8805 64.4961 68.1856C64.4961 64.4907 61.7474 61.4861 58.3669 61.4861H55.843V58.7268C55.843 55.0324 53.0914 52.0273 49.711 52.0273H45.41C48.7904 52.0273 51.542 55.0324 51.542 58.7268V61.4862H54.0658C57.4463 61.4862 60.1951 64.4906 60.1951 68.1857C60.1951 71.8808 57.4463 74.888 54.0658 74.888Z" fill="url(#paint3_linear_5514_63035)"></path><path d="M58.367 0H54.0658C62.2163 0 68.8485 7.24948 68.8485 16.1596V18.9175H73.1497V16.1596C73.1501 7.24948 66.5176 0 58.367 0Z" fill="url(#paint4_linear_5514_63035)"></path><path d="M80.0018 18.9175H75.7009C83.8518 18.9175 90.484 26.167 90.484 35.0782V82.3759C90.484 91.2871 83.8518 98.5365 75.7009 98.5365H80.0018C88.1527 98.5365 94.785 91.2871 94.785 82.3759V35.0782C94.7851 26.167 88.1528 18.9175 80.0018 18.9175Z" fill="url(#paint5_linear_5514_63035)"></path><path d="M36.7569 74.8882C33.3765 74.8882 30.6277 71.8806 30.6277 68.1856C30.6277 64.4906 33.3765 61.4862 36.7569 61.4862H39.2813V58.7269C39.2813 55.0326 42.0301 52.0275 45.4106 52.0275C48.791 52.0275 51.5424 55.0326 51.5424 58.7269V61.4863H54.0663C57.4468 61.4863 60.1956 64.4908 60.1956 68.1857C60.1956 71.8806 57.4468 74.8883 54.0663 74.8883H51.5424V77.6469C51.5424 81.3421 48.7909 84.3464 45.4106 84.3464C42.0302 84.3464 39.2813 81.3419 39.2813 77.6469V74.8883L36.7569 74.8882Z" fill="#CB99FF"></path><path d="M75.7008 18.9175C83.8517 18.9175 90.484 26.1669 90.484 35.0781V82.3759C90.484 91.287 83.8517 98.5366 75.7008 98.5366H15.1209C6.96831 98.5366 0.335938 91.287 0.335938 82.3759V35.0781C0.335938 26.1669 6.96831 18.9175 15.1209 18.9175H21.9715V16.1594C21.9715 7.24925 28.6033 0 36.7565 0H54.0656C62.216 0 68.8479 7.24955 68.8479 16.1594V18.9175H75.7008ZM78.2246 82.376V51.2387H12.5976V82.3759C12.5976 83.8977 13.7286 85.134 15.1209 85.134H75.7008C77.0935 85.134 78.2246 83.8978 78.2246 82.376ZM78.2246 37.8367V35.078C78.2246 33.5567 77.0937 32.32 75.7008 32.32H15.1209C13.7282 32.32 12.5976 33.5567 12.5976 35.078V37.8367H78.2246ZM34.2326 16.1593V18.9174H56.5891V16.1594C56.5891 14.637 55.4576 13.4002 54.0658 13.4002H36.7567C35.3649 13.4002 34.2326 14.6369 34.2326 16.1593Z" fill="#CB99FF"></path><g style="mix-blend-mode:multiply" opacity="0.4" filter="url(#filter0_f_5514_63035)"><path d="M54.7046 64.7716C56.4269 64.7716 57.8296 66.3044 57.8296 68.188C57.8296 70.0715 56.4269 71.6033 54.7046 71.6033H50.3773C49.7133 71.6033 49.1749 72.1907 49.1749 72.9175V77.6476C49.1749 79.5312 47.7736 81.0629 46.0503 81.0629C44.3271 81.0629 42.9253 79.5312 42.9253 77.6476V72.9176C42.9253 72.1908 42.387 71.6034 41.723 71.6034H37.3955C35.6722 71.6034 34.2695 70.0722 34.2695 68.1881C34.2695 66.3039 35.6721 64.7717 37.3955 64.7717H41.7228C42.3868 64.7717 42.9251 64.1842 42.9251 63.4574V58.7279C42.9251 56.8454 44.327 55.3132 46.0501 55.3132C47.7733 55.3132 49.1747 56.8454 49.1747 58.7279V63.4574C49.1747 64.1842 49.7131 64.7717 50.3771 64.7717L54.7046 64.7716Z" fill="#8C59CF"></path></g><g style="mix-blend-mode:multiply" opacity="0.4" filter="url(#filter1_f_5514_63035)"><path d="M76.3385 22.2048C82.8338 22.2048 88.1184 27.9806 88.1184 35.0802V82.3772C88.1184 89.4763 82.8338 95.2525 76.3385 95.2525H15.7589C9.26406 95.2525 3.97949 89.4763 3.97949 82.3772V35.0802C3.97949 27.9806 9.26406 22.2048 15.7589 22.2048H24.4134C25.0775 22.2048 25.6158 21.6174 25.6158 20.8905V16.1605C25.6158 9.06135 30.8995 3.28516 37.3952 3.28516H54.7039C61.1987 3.28516 66.4832 9.06135 66.4832 16.1605V20.8906C66.4832 21.6175 67.0211 22.2049 67.6856 22.2049L76.3385 22.2048ZM81.8673 82.3772V49.2688C81.8673 48.5425 81.3302 47.9545 80.666 47.9545H11.431C10.768 47.9545 10.2296 48.5425 10.2296 49.2688V82.3772C10.2296 85.7091 12.7097 88.4205 15.7585 88.4205H76.3381C79.3869 88.4205 81.8669 85.7087 81.8669 82.3772H81.8673ZM81.8669 39.8092V35.0802C81.8669 31.7483 79.3869 29.0364 76.3381 29.0364H15.7585C12.7097 29.0364 10.2296 31.7482 10.2296 35.0802V39.8092C10.2296 40.535 10.768 41.1225 11.431 41.1225H80.6656C81.3295 41.1225 81.8669 40.535 81.8669 39.8092V39.8092ZM31.8652 16.1605V20.8906C31.8652 21.6175 32.4031 22.2049 33.0676 22.2049H59.0298C59.6943 22.2049 60.2322 21.6175 60.2322 20.8906V16.1605C60.2322 12.8286 57.7517 10.1172 54.7034 10.1172H37.3947C34.3454 10.1172 31.865 12.829 31.865 16.1605" fill="#8C59CF"></path></g><path d="M6.25019 39.8092C6.25019 40.5349 6.78871 41.1223 7.45177 41.1223H8.48353C7.82047 41.1223 7.28205 40.5349 7.28205 39.8092V35.0801C7.28205 31.7482 9.76229 29.0363 12.8113 29.0363H11.7792C8.73024 29.0363 6.25 31.748 6.25 35.0801L6.25019 39.8092Z" fill="url(#paint6_linear_5514_63035)"></path><path d="M7.28255 82.3772V49.2689C7.28255 48.5425 7.82097 47.9546 8.48403 47.9546H7.45169C6.78864 47.9546 6.25012 48.5425 6.25012 49.2689V82.3772C6.25012 85.7091 8.73035 88.4205 11.7793 88.4205H12.8112C9.7623 88.4205 7.28255 85.7091 7.28255 82.3772Z" fill="url(#paint7_linear_5514_63035)"></path><path d="M27.8856 16.1604V20.8905C27.8856 21.6174 28.4236 22.2048 29.088 22.2048H30.1198C29.4553 22.2048 28.9173 21.6174 28.9173 20.8905V16.1604C28.9173 12.8285 31.3979 10.1172 34.4471 10.1172H33.4155C30.3661 10.1171 27.8856 12.8284 27.8856 16.1604Z" fill="url(#paint8_linear_5514_63035)"></path><path d="M43.101 81.0628C44.8244 81.0628 46.2258 79.5311 46.2258 77.6475V72.9175C46.2258 72.1907 46.7642 71.6033 47.4282 71.6033H46.3964C45.7323 71.6033 45.194 72.1907 45.194 72.9175V77.6476C45.194 79.5312 43.7926 81.0629 42.0692 81.0629L43.101 81.0628Z" fill="url(#paint9_linear_5514_63035)"></path><path d="M43.101 55.3132H42.0692C43.7926 55.3132 45.194 56.8453 45.194 58.728V63.4574C45.194 64.1842 45.7323 64.7717 46.3964 64.7717H47.4282C46.7642 64.7717 46.2258 64.1842 46.2258 63.4574V58.728C46.2258 56.8453 44.8244 55.3132 43.101 55.3132Z" fill="url(#paint10_linear_5514_63035)"></path><path d="M50.7236 71.6033H51.7555C53.4778 71.6033 54.8807 70.0722 54.8807 68.188C54.8807 66.3038 53.478 64.7716 51.7555 64.7716H50.7236C52.4461 64.7716 53.8488 66.3044 53.8488 68.188C53.8488 70.0716 52.4457 71.6033 50.7236 71.6033Z" fill="url(#paint11_linear_5514_63035)"></path><path d="M63.5348 20.8904V16.1604C63.5348 9.06132 58.2503 3.28503 51.7554 3.28503H50.7236C57.2184 3.28503 62.5029 9.06132 62.5029 16.1604V20.8905C62.5029 21.6174 63.0409 22.2048 63.7054 22.2048H64.7372C64.0727 22.2047 63.5348 21.6173 63.5348 20.8904Z" fill="url(#paint12_linear_5514_63035)"></path><path d="M73.3906 22.2047H72.3588C78.8541 22.2047 84.1386 27.9805 84.1386 35.0801V82.3771C84.1386 89.4762 78.8541 95.2524 72.3588 95.2524H73.3906C79.8859 95.2524 85.1704 89.4762 85.1704 82.3771V35.0801C85.1704 27.9805 79.8859 22.2047 73.3906 22.2047Z" fill="url(#paint13_linear_5514_63035)"></path><path d="M50.7242 64.7716C52.4465 64.7716 53.8492 66.3044 53.8492 68.188C53.8492 70.0715 52.4466 71.6033 50.7242 71.6033H46.3969C45.7329 71.6033 45.1945 72.1907 45.1945 72.9175V77.6476C45.1945 79.5312 43.7932 81.0629 42.0699 81.0629C40.3467 81.0629 38.9449 79.5312 38.9449 77.6476V72.9176C38.9449 72.1908 38.4065 71.6034 37.7425 71.6034H33.4159C31.6926 71.6034 30.2899 70.0722 30.2899 68.1881C30.2899 66.3039 31.6925 64.7717 33.4159 64.7717H37.7424C38.4064 64.7717 38.9448 64.1842 38.9448 63.4574V58.7279C38.9448 56.8454 40.3467 55.3132 42.0698 55.3132C43.793 55.3132 45.1944 56.8454 45.1944 58.7279V63.4574C45.1944 64.1842 45.7328 64.7717 46.3968 64.7717L50.7242 64.7716Z" fill="#F2DFFF"></path><path d="M72.3592 22.2048C78.8545 22.2048 84.139 27.9806 84.139 35.0802V82.3772C84.139 89.4763 78.8545 95.2525 72.3592 95.2525H11.7794C5.28457 95.2525 0 89.4763 0 82.3772V35.0802C0 27.9806 5.28457 22.2048 11.7794 22.2048H20.434C21.098 22.2048 21.6363 21.6174 21.6363 20.8905V16.1605C21.6363 9.06135 26.92 3.28516 33.4157 3.28516H50.7241C57.2189 3.28516 62.5035 9.06135 62.5035 16.1605V20.8906C62.5035 21.6175 63.0413 22.2049 63.7059 22.2049L72.3592 22.2048ZM77.8881 82.3772V49.2688C77.8881 48.5425 77.351 47.9545 76.6867 47.9545H7.4521C6.78908 47.9545 6.25069 48.5425 6.25069 49.2688V82.3772C6.25069 85.7091 8.73078 88.4205 11.7796 88.4205H72.3592C75.408 88.4205 77.8881 85.7087 77.8881 82.3772ZM77.8881 39.8092V35.0802C77.8881 31.7483 75.408 29.0364 72.3592 29.0364H11.7794C8.73059 29.0364 6.25049 31.7482 6.25049 35.0802V39.8092C6.25049 40.535 6.78888 41.1225 7.4519 41.1225H76.6865C77.3504 41.1225 77.8881 40.535 77.8881 39.8092ZM27.886 16.1605V20.8906C27.886 21.6175 28.4238 22.2049 29.0883 22.2049H55.0505C55.715 22.2049 56.2529 21.6175 56.2529 20.8906V16.1605C56.2529 12.8286 53.7724 10.1172 50.7241 10.1172H33.4158C30.3665 10.1172 27.886 12.829 27.886 16.1605Z" fill="#F2DFFF"></path><defs><filter id="filter0_f_5514_63035" x="31.2695" y="52.3132" width="29.5605" height="31.7496" filterUnits="userSpaceOnUse" color-interpolation-filters="sRGB"><feFlood flood-opacity="0" result="BackgroundImageFix"></feFlood><feBlend mode="normal" in="SourceGraphic" in2="BackgroundImageFix" result="shape"></feBlend><feGaussianBlur stdDeviation="1.5" result="effect1_foregroundBlur_5514_63035"></feGaussianBlur></filter><filter id="filter1_f_5514_63035" x="0.979492" y="0.285156" width="90.1387" height="97.9674" filterUnits="userSpaceOnUse" color-interpolation-filters="sRGB"><feFlood flood-opacity="0" result="BackgroundImageFix"></feFlood><feBlend mode="normal" in="SourceGraphic" in2="BackgroundImageFix" result="shape"></feBlend><feGaussianBlur stdDeviation="1.5" result="effect1_foregroundBlur_5514_63035"></feGaussianBlur></filter><linearGradient id="paint0_linear_5514_63035" x1="53.6913" y1="0" x2="53.6913" y2="98.5365" gradientUnits="userSpaceOnUse"><stop stop-color="#6B3FAA"></stop><stop offset="1" stop-color="#C798FD"></stop></linearGradient><linearGradient id="paint1_linear_5514_63035" x1="53.6913" y1="0" x2="53.6913" y2="98.5365" gradientUnits="userSpaceOnUse"><stop stop-color="#6B3FAA"></stop><stop offset="1" stop-color="#C798FD"></stop></linearGradient><linearGradient id="paint2_linear_5514_63035" x1="53.6913" y1="0" x2="53.6913" y2="98.5365" gradientUnits="userSpaceOnUse"><stop stop-color="#6B3FAA"></stop><stop offset="1" stop-color="#C798FD"></stop></linearGradient><linearGradient id="paint3_linear_5514_63035" x1="53.6913" y1="0" x2="53.6913" y2="98.5365" gradientUnits="userSpaceOnUse"><stop stop-color="#6B3FAA"></stop><stop offset="1" stop-color="#C798FD"></stop></linearGradient><linearGradient id="paint4_linear_5514_63035" x1="53.6913" y1="0" x2="53.6913" y2="98.5365" gradientUnits="userSpaceOnUse"><stop stop-color="#6B3FAA"></stop><stop offset="1" stop-color="#C798FD"></stop></linearGradient><linearGradient id="paint5_linear_5514_63035" x1="53.6913" y1="0" x2="53.6913" y2="98.5365" gradientUnits="userSpaceOnUse"><stop stop-color="#6B3FAA"></stop><stop offset="1" stop-color="#C798FD"></stop></linearGradient><linearGradient id="paint6_linear_5514_63035" x1="45.7102" y1="3.28503" x2="45.7102" y2="95.2524" gradientUnits="userSpaceOnUse"><stop stop-color="#6B3FAA"></stop><stop offset="1" stop-color="#DAC8FF"></stop></linearGradient><linearGradient id="paint7_linear_5514_63035" x1="45.7102" y1="3.28503" x2="45.7102" y2="95.2524" gradientUnits="userSpaceOnUse"><stop stop-color="#6B3FAA"></stop><stop offset="1" stop-color="#DAC8FF"></stop></linearGradient><linearGradient id="paint8_linear_5514_63035" x1="45.7102" y1="3.28503" x2="45.7102" y2="95.2524" gradientUnits="userSpaceOnUse"><stop stop-color="#6B3FAA"></stop><stop offset="1" stop-color="#DAC8FF"></stop></linearGradient><linearGradient id="paint9_linear_5514_63035" x1="45.7102" y1="3.28503" x2="45.7102" y2="95.2524" gradientUnits="userSpaceOnUse"><stop stop-color="#6B3FAA"></stop><stop offset="1" stop-color="#DAC8FF"></stop></linearGradient><linearGradient id="paint10_linear_5514_63035" x1="45.7102" y1="3.28503" x2="45.7102" y2="95.2524" gradientUnits="userSpaceOnUse"><stop stop-color="#6B3FAA"></stop><stop offset="1" stop-color="#DAC8FF"></stop></linearGradient><linearGradient id="paint11_linear_5514_63035" x1="45.7102" y1="3.28503" x2="45.7102" y2="95.2524" gradientUnits="userSpaceOnUse"><stop stop-color="#6B3FAA"></stop><stop offset="1" stop-color="#DAC8FF"></stop></linearGradient><linearGradient id="paint12_linear_5514_63035" x1="45.7102" y1="3.28503" x2="45.7102" y2="95.2524" gradientUnits="userSpaceOnUse"><stop stop-color="#6B3FAA"></stop><stop offset="1" stop-color="#DAC8FF"></stop></linearGradient><linearGradient id="paint13_linear_5514_63035" x1="45.7102" y1="3.28503" x2="45.7102" y2="95.2524" gradientUnits="userSpaceOnUse"><stop stop-color="#6B3FAA"></stop><stop offset="1" stop-color="#DAC8FF"></stop></linearGradient></defs></svg> 