<svg width="233" height="126" viewBox="0 0 233 126" fill="none" xmlns="http://www.w3.org/2000/svg">
<g filter="url(#filter0_d_484_9061)">
<path d="M103.438 20.0368C107.421 14.6626 115.135 13.8154 120.19 18.1971L128.121 25.0736C131.51 28.0112 136.298 28.708 140.384 26.8578L164.997 15.7104C170.068 13.4139 175.416 18.3204 173.563 23.5695C171.949 28.1452 175.88 32.7581 180.654 31.8894L203.01 27.8217C208.279 26.8629 210.915 33.9542 206.299 36.6704C202.146 39.1141 203.789 45.4703 208.606 45.5949L210.689 45.6488C216.963 45.811 217.945 54.748 211.856 56.268L209.834 56.7727C205.158 57.9399 204.934 64.5012 209.519 65.9853C214.614 67.6348 213.58 75.1292 208.228 75.3369L185.522 76.2182C180.674 76.4064 177.837 81.7625 180.407 85.8787C183.354 90.6007 179.199 96.5509 173.751 95.4097L147.304 89.87C142.915 88.9506 138.392 90.67 135.721 94.2731L129.471 102.707C125.488 108.081 117.774 108.929 112.72 104.547L104.788 97.6705C101.399 94.7328 96.6106 94.0361 92.5254 95.8862L67.9117 107.034C62.8412 109.33 57.4933 104.424 59.3456 99.1745C60.9602 94.5988 57.0291 89.986 52.2553 90.8546L29.8995 94.9223C24.6299 95.8812 21.9938 88.7898 26.6101 86.0737C30.7634 83.6299 29.1202 77.2738 24.3029 77.1492L22.2197 77.0953C15.9459 76.933 14.9644 67.9961 21.0534 66.4761L23.0752 65.9713C27.7506 64.8042 27.9752 58.2429 23.3905 56.7588C18.2947 55.1093 19.329 47.6149 24.681 47.4071L47.3867 46.5259C52.2353 46.3377 55.0716 40.9816 52.5023 36.8654C49.555 32.1434 53.7104 26.1932 59.1585 27.3344L85.6049 32.874C89.9943 33.7935 94.5174 32.0741 97.1876 28.471L103.438 20.0368Z" fill="white"/>
</g>
<path d="M46.9755 78.0895L45.1689 62.9841L50.9514 62.2925C52.0431 62.1619 52.9708 62.2255 53.7348 62.4833C54.5031 62.7355 55.1021 63.1352 55.5316 63.6823C55.966 64.2289 56.2279 64.8758 56.3173 65.6232C56.3908 66.2379 56.3357 66.7781 56.1521 67.244C55.9678 67.7049 55.6927 68.0944 55.3267 68.4125C54.9608 68.7306 54.539 68.978 54.0614 69.1548L54.0791 69.3023C54.6186 69.2677 55.1521 69.371 55.6797 69.6121C56.2116 69.8478 56.6673 70.2172 57.0466 70.7205C57.426 71.2237 57.6616 71.8589 57.7533 72.6259C57.8468 73.4078 57.7416 74.1335 57.4377 74.8033C57.1332 75.4681 56.6213 76.0256 55.9021 76.4757C55.1829 76.9258 54.2455 77.22 53.09 77.3582L46.9755 78.0895ZM49.4384 75.4757L52.3813 75.1238C53.3746 75.005 54.0674 74.7301 54.4597 74.2991C54.8564 73.8627 55.0189 73.3445 54.9471 72.7446C54.8936 72.2971 54.7348 71.9072 54.4705 71.5747C54.2058 71.2373 53.857 70.9897 53.4241 70.832C52.9907 70.6694 52.4913 70.6219 51.9258 70.6895L48.9092 71.0503L49.4384 75.4757ZM48.6736 69.081L51.3805 68.7573C51.8526 68.7008 52.2676 68.5639 52.6256 68.3465C52.9831 68.1242 53.2509 67.8403 53.429 67.4948C53.6114 67.1438 53.6762 66.7471 53.6233 66.3045C53.5533 65.7194 53.2891 65.2622 52.8308 64.933C52.3774 64.6032 51.7475 64.4865 50.9411 64.583L48.1752 64.9138L48.6736 69.081ZM65.4762 76.1012C64.3453 76.2365 63.3445 76.1043 62.4737 75.7047C61.6079 75.3045 60.9039 74.693 60.3616 73.8701C59.8236 73.0417 59.4861 72.0546 59.3491 70.9089C59.2115 69.7583 59.3113 68.7165 59.6486 67.7834C59.9853 66.8454 60.5274 66.0823 61.275 65.4941C62.0269 64.9005 62.9561 64.5375 64.0624 64.4051C64.9819 64.2952 65.816 64.3675 66.5646 64.6221C67.3176 64.8712 67.9423 65.2777 68.4387 65.8418C68.9345 66.401 69.2607 67.0851 69.4173 67.8943L66.8653 68.1995C66.6968 67.6661 66.3965 67.2406 65.9646 66.9232C65.5369 66.6003 65.001 66.4774 64.3569 66.5544C63.8111 66.6197 63.3493 66.8246 62.9715 67.169C62.5932 67.5085 62.3211 67.965 62.1553 68.5384C61.9944 69.1113 61.9595 69.7788 62.0507 70.5409C62.143 71.3129 62.3355 71.9632 62.6281 72.4918C62.9202 73.0154 63.2882 73.4028 63.7322 73.654C64.1805 73.8996 64.6825 73.9892 65.2381 73.9227C65.6315 73.8757 65.9743 73.7599 66.2664 73.5753C66.5629 73.3853 66.7998 73.135 66.9771 72.8245C67.1544 72.514 67.258 72.15 67.2879 71.7325L69.8399 71.4273C69.8718 72.2364 69.7207 72.9751 69.3867 73.6435C69.0521 74.307 68.5541 74.8553 67.8927 75.2885C67.2307 75.7168 66.4252 75.9877 65.4762 76.1012ZM77.5373 74.6587C76.4015 74.7945 75.3923 74.6758 74.5097 74.3026C73.6315 73.9239 72.9191 73.3258 72.3725 72.5084C71.8253 71.6861 71.4808 70.6824 71.3391 69.4974C71.1997 68.332 71.2986 67.2828 71.6359 66.3497C71.9775 65.4111 72.5196 64.648 73.2623 64.0604C74.0044 63.4679 74.9163 63.107 75.9981 62.9776C76.6963 62.8941 77.3688 62.9284 78.0154 63.0805C78.6663 63.2271 79.2582 63.5054 79.791 63.9155C80.3288 64.325 80.7786 64.8747 81.1404 65.5646C81.5016 66.2495 81.7416 67.0886 81.8604 68.0819L81.9583 68.9006L72.6723 70.0112L72.4571 68.2115L79.1837 67.407C79.1176 66.8962 78.9526 66.4546 78.6886 66.0822C78.424 65.7049 78.0837 65.4239 77.6676 65.2393C77.2564 65.054 76.7951 64.992 76.2838 65.0532C75.738 65.1184 75.2744 65.3085 74.8931 65.6235C74.5113 65.9335 74.2304 66.3162 74.0504 66.7716C73.8748 67.2215 73.8148 67.7 73.8705 68.2071L74.0584 69.7781C74.1372 70.437 74.3253 70.9881 74.6227 71.4313C74.9195 71.8696 75.2992 72.1883 75.7619 72.3873C76.2241 72.5814 76.7452 72.6437 77.3254 72.5743C77.7139 72.5279 78.059 72.4317 78.3608 72.2859C78.6619 72.1352 78.9151 71.9378 79.1204 71.6938C79.3256 71.4499 79.4681 71.161 79.5479 70.8273L82.0744 70.8094C81.9958 71.4871 81.7647 72.0983 81.381 72.6429C81.0016 73.182 80.4863 73.6277 79.8352 73.9799C79.1834 74.3272 78.4175 74.5534 77.5373 74.6587ZM90.946 61.3395L91.208 63.5301L86.3253 64.114L87.4182 73.2525L84.8073 73.5648L83.4523 62.2357L90.946 61.3395ZM98.9434 72.0985C97.837 72.2308 96.8491 72.1021 95.9796 71.7124C95.11 71.3226 94.3992 70.7169 93.847 69.8951C93.2998 69.0728 92.9562 68.0765 92.8162 66.9062C92.6763 65.736 92.7749 64.6843 93.1122 63.7512C93.4544 62.8175 94.002 62.0587 94.7551 61.4749C95.5083 60.8911 96.438 60.533 97.5443 60.4007C98.6507 60.2684 99.6386 60.3971 100.508 60.7868C101.378 61.1766 102.086 61.7851 102.634 62.6123C103.187 63.439 103.533 64.4375 103.673 65.6077C103.813 66.778 103.712 67.8275 103.369 68.7563C103.031 69.6845 102.486 70.4405 101.733 71.0243C100.979 71.6081 100.05 71.9662 98.9434 72.0985ZM98.7023 69.9578C99.3022 69.8861 99.7841 69.6614 100.148 69.2837C100.511 68.9011 100.758 68.4178 100.887 67.8337C101.022 67.249 101.048 66.6125 100.965 65.9241C100.883 65.2308 100.707 64.6159 100.438 64.0795C100.174 63.5375 99.8201 63.1235 99.3769 62.8373C98.9337 62.5512 98.4121 62.444 97.8123 62.5157C97.1976 62.5893 96.7062 62.8176 96.3381 63.2008C95.9749 63.5834 95.7263 64.0694 95.5923 64.659C95.4627 65.2431 95.4393 65.8818 95.5222 66.5751C95.6046 67.2635 95.7776 67.8762 96.0413 68.4132C96.31 68.9497 96.6659 69.361 97.1091 69.6471C97.5566 69.9278 98.0877 70.0313 98.7023 69.9578ZM116.071 54.5041L117.878 69.6095L115.142 69.9368L113.653 57.494L113.565 57.5046L110.302 60.1841L110.002 57.6763L113.468 54.8155L116.071 54.5041ZM127.331 68.7707C126.117 68.9159 125.037 68.7333 124.094 68.2227C123.154 67.7067 122.381 66.8939 121.775 65.7844C121.172 64.6694 120.773 63.2883 120.576 61.6411C120.384 59.9932 120.45 58.5639 120.774 57.3531C121.102 56.1368 121.662 55.172 122.455 54.4588C123.252 53.745 124.256 53.3158 125.465 53.1711C126.675 53.0264 127.751 53.2069 128.695 53.7125C129.638 54.2182 130.41 55.0236 131.011 56.1287C131.617 57.2333 132.018 58.6067 132.215 60.2491C132.412 61.9012 132.347 63.3404 132.02 64.5665C131.697 65.7871 131.138 66.7568 130.341 67.4756C129.549 68.1937 128.546 68.6254 127.331 68.7707ZM127.055 66.4621C127.999 66.3492 128.688 65.7954 129.123 64.8008C129.562 63.8007 129.673 62.3934 129.456 60.579C129.313 59.3792 129.067 58.3862 128.718 57.5999C128.37 56.8137 127.942 56.2414 127.436 55.883C126.928 55.5198 126.362 55.3755 125.738 55.4502C124.799 55.5625 124.112 56.1184 123.678 57.118C123.243 58.1126 123.131 59.51 123.342 61.3103C123.481 62.5156 123.722 63.5141 124.066 64.3058C124.415 65.097 124.844 65.6742 125.351 66.0375C125.858 66.3958 126.426 66.5374 127.055 66.4621ZM141.185 67.1138C139.97 67.2591 138.891 67.0764 137.947 66.5659C137.007 66.0498 136.234 65.237 135.628 64.1275C135.026 63.0125 134.626 61.6314 134.429 59.9842C134.237 58.3364 134.303 56.9071 134.627 55.6963C134.955 54.4799 135.516 53.5152 136.308 52.8019C137.106 52.0881 138.109 51.6589 139.319 51.5142C140.528 51.3696 141.605 51.55 142.548 52.0557C143.491 52.5613 144.263 53.3667 144.864 54.4718C145.47 55.5764 145.872 56.9499 146.068 58.5922C146.266 60.2443 146.201 61.6835 145.874 62.9096C145.551 64.1303 144.991 65.1 144.194 65.8187C143.402 66.5368 142.399 66.9685 141.185 67.1138ZM140.908 64.8052C141.852 64.6923 142.542 64.1385 142.977 63.1439C143.415 62.1438 143.526 60.7365 143.309 58.9221C143.166 57.7223 142.92 56.7293 142.572 55.9431C142.223 55.1568 141.796 54.5845 141.289 54.2262C140.782 53.8629 140.216 53.7186 139.591 53.7933C138.652 53.9056 137.966 54.4616 137.532 55.4611C137.097 56.4557 136.985 57.8531 137.195 59.6534C137.334 60.8587 137.576 61.8572 137.92 62.649C138.269 63.4401 138.697 64.0173 139.204 64.3806C139.711 64.7389 140.279 64.8805 140.908 64.8052ZM155.038 65.4569C153.823 65.6022 152.744 65.4195 151.8 64.909C150.861 64.3929 150.088 63.5802 149.481 62.4707C148.879 61.3557 148.48 59.9746 148.283 58.3273C148.09 56.6795 148.156 55.2502 148.48 54.0394C148.809 52.8231 149.369 51.8583 150.162 51.1451C150.959 50.4313 151.963 50.002 153.172 49.8574C154.382 49.7127 155.458 49.8932 156.401 50.3988C157.345 50.9044 158.117 51.7098 158.718 52.815C159.324 53.9196 159.725 55.293 159.921 56.9353C160.119 58.5875 160.054 60.0266 159.727 61.2528C159.404 62.4734 158.844 63.4431 158.048 64.1618C157.256 64.88 156.252 65.3117 155.038 65.4569ZM154.762 63.1483C155.706 63.0354 156.395 62.4817 156.83 61.487C157.269 60.4869 157.38 59.0797 157.163 57.2652C157.019 56.0655 156.773 55.0724 156.425 54.2862C156.077 53.4999 155.649 52.9276 155.142 52.5693C154.635 52.206 154.069 52.0617 153.445 52.1364C152.506 52.2488 151.819 52.8047 151.385 53.8042C150.95 54.7988 150.838 56.1963 151.048 57.9965C151.188 59.2018 151.429 60.2003 151.773 60.9921C152.122 61.7832 152.55 62.3605 153.058 62.7237C153.564 63.0821 154.132 63.2236 154.762 63.1483ZM166.742 54.4961L166.48 52.3055L176.393 51.1199L176.655 53.3105L172.99 53.7489L174.083 62.8874L171.501 63.1962L170.408 54.0577L166.742 54.4961ZM186.013 49.9694L186.275 52.16L181.392 52.744L182.485 61.8824L179.874 62.1947L178.519 50.8657L186.013 49.9694Z" fill="#BB7CFF"/>
<defs>
<filter id="filter0_d_484_9061" x="0.557724" y="0.362474" width="231.794" height="125.301" filterUnits="userSpaceOnUse" color-interpolation-filters="sRGB">
<feFlood flood-opacity="0" result="BackgroundImageFix"/>
<feColorMatrix in="SourceAlpha" type="matrix" values="0 0 0 0 0 0 0 0 0 0 0 0 0 0 0 0 0 0 127 0" result="hardAlpha"/>
<feOffset dy="1.64081"/>
<feGaussianBlur stdDeviation="8.20405"/>
<feComposite in2="hardAlpha" operator="out"/>
<feColorMatrix type="matrix" values="0 0 0 0 0.341176 0 0 0 0 0.215686 0 0 0 0 0.6 0 0 0 0.5 0"/>
<feBlend mode="normal" in2="BackgroundImageFix" result="effect1_dropShadow_484_9061"/>
<feBlend mode="normal" in="SourceGraphic" in2="effect1_dropShadow_484_9061" result="shape"/>
</filter>
</defs>
</svg>
